# xmcd
#
# Track frame offsets:
#	183
#	11243
#	22773
#	38813
#	54788
#	69243
#	85428
#	104933
#	115495
#	130103
#	143140
#	156990
#	169980
#	182593
#	200628
#	214018
#	228608
#	239573
#	253565
#	267615
#
# Disc length: 3727
#
# Revision: 1
# Processed by: cddbd v1.5.1PL0 Copyright (c) Steve Scherf et al.
# Submitted via: Axialis_AX_CDPlayer 2.6
# Normalized: r0:TDELIM( - )
#
DISCID=280e8d14
DTITLE=Various C&W - Country Greats
DYEAR=1900
DGENRE=
TTITLE0=Glen Campbell - It's only make believe
TTITLE1=Crystal Gayle - Don't it make my brown eyes blue.
TTITLE2=Kenny Rogers - Lucille
TTITLE3=Billie Jo Spears - Sing me an old-fashioned song
TTITLE4=Glen Campbell - Rhinestone Cowboy
TTITLE5=Billie Jo Spears - Blanket on the ground
TTITLE6=Kenny Rogers - Coward of the County
TTITLE7=Slim Whitman - Rose Marie
TTITLE8=Crystal Gayle - Cry me a River
TTITLE9=Bobbie Gentry - I'll never fall in love again
TTITLE10=Doctor Hook - Sexy Eyes
TTITLE11=Willie Nelson - Crazy
TTITLE12=Tanya Tucker - Daddy and Home
TTITLE13=Dottie West - Hey Mr Dreammaker
TTITLE14=Doctor Hook - When You're in Love with a Beautiful Woman
TTITLE15=Don Williams - Another Place, Another Time
TTITLE16=Willie Nelson - Hello Walls
TTITLE17=Juice Newton - All I Have to do is Dream
TTITLE18=Lacy J Dalton - Still Crazy After all These Years
TTITLE19=Wanda Jackson - Stand By Your Man
EXTD=
EXTT0=
EXTT1=
EXTT2=
EXTT3=
EXTT4=
EXTT5=
EXTT6=
EXTT7=
EXTT8=
EXTT9=
EXTT10=
EXTT11=
EXTT12=
EXTT13=
EXTT14=
EXTT15=
EXTT16=
EXTT17=
EXTT18=
EXTT19=
PLAYORDER=
